<svg xmlns="http://www.w3.org/2000/svg" xmlns:xlink="http://www.w3.org/1999/xlink"><symbol fill="none" viewBox="0 0 12 15" id="i_bookmark" xmlns="http://www.w3.org/2000/svg"><path d="M11 13.857l-5-3.571-5 3.571V2.43A1.429 1.429 0 012.429 1H9.57A1.429 1.429 0 0111 2.429v11.428z" stroke="#8E9CBB" stroke-width="2" stroke-linecap="round" stroke-linejoin="round"/></symbol><symbol fill="none" viewBox="0 0 8 5" id="i_chevron-down" xmlns="http://www.w3.org/2000/svg"><path d="M3.54 4.473a.662.662 0 010-.937L6.87.204a.662.662 0 11.936.937l-3.33 3.332a.662.662 0 01-.936 0z" fill="#06F"/><path d="M4.47 4.473a.662.662 0 000-.937L1.13.194a.662.662 0 10-.936.937l3.34 3.342a.662.662 0 00.937 0z" fill="#06F"/></symbol><symbol fill="none" viewBox="0 0 8 16" id="i_move" xmlns="http://www.w3.org/2000/svg"><path d="M4.696 14.709c-.391.39-1.026.39-1.417 0l-2.986-2.98a.999.999 0 010-1.414 1.003 1.003 0 011.417 0l2.986 2.98a.999.999 0 010 1.414z" fill="#8E9CBB"/><path d="M3.304 14.709c.391.39 1.025.39 1.417 0l2.986-2.98a.999.999 0 000-1.414 1.003 1.003 0 00-1.417 0l-2.986 2.98a.999.999 0 000 1.414z" fill="#8E9CBB"/><path d="M3.988 14.016a1 1 0 01-1.002-1V3a1 1 0 012.003 0v10.016a1 1 0 01-1.001 1z" fill="#8E9CBB"/><path d="M4.696.293a1.003 1.003 0 00-1.417 0L.293 3.272a.999.999 0 000 1.414c.392.39 1.026.39 1.417 0l2.986-2.979a.999.999 0 000-1.414z" fill="#8E9CBB"/><path d="M3.304.293a1.003 1.003 0 011.417 0l2.986 2.979a.999.999 0 010 1.414c-.392.39-1.026.39-1.417 0L3.304 1.707a.999.999 0 010-1.414z" fill="#8E9CBB"/></symbol><symbol fill="none" viewBox="0 0 14 14" id="i_pen" xmlns="http://www.w3.org/2000/svg"><path d="M9.34 1.628L8.631.921l.707.707zM10.855 1V0v1zM13 3.144h1-1zm-.628 1.517l-.707-.708.707.708zM5.17 11.863l.263.965a1 1 0 00.444-.258l-.707-.707zM1 13l-.965-.263a1 1 0 001.228 1.228L1 13zm1.137-4.17l-.707-.707a1 1 0 00-.258.444l.965.263zm7.91-6.495c.106-.106.232-.19.37-.248L9.653.24c-.381.158-.728.39-1.02.682l1.415 1.414zm.37-.248c.14-.057.288-.087.439-.087V0c-.413 0-.822.081-1.204.24l.766 1.847zM10.857 2c.15 0 .299.03.438.087L12.059.24A3.145 3.145 0 0010.856 0v2zm.438.087c.138.058.265.142.37.248L13.08.921a3.146 3.146 0 00-1.02-.682l-.765 1.848zm.37.248c.107.106.191.233.249.371l1.848-.765a3.147 3.147 0 00-.682-1.02l-1.414 1.414zm.249.371c.057.14.087.288.087.438h2c0-.413-.081-.821-.24-1.203l-1.847.765zm.087.438c0 .15-.03.3-.087.438l1.848.766c.158-.382.239-.79.239-1.204h-2zm-.087.438a1.144 1.144 0 01-.248.371l1.414 1.415c.292-.292.524-.639.682-1.02l-1.848-.766zm-.248.371l-7.202 7.203 1.414 1.414 7.202-7.202-1.414-1.415zm-6.758 6.945l-4.17 1.137.526 1.93 4.17-1.137-.526-1.93zm-2.942 2.365l1.137-4.17-1.93-.526-1.137 4.17 1.93.526zm.88-3.726l7.201-7.202L8.633.921 1.43 8.123l1.414 1.414zM7 4l3 3 1.414-1.414-3-3L7 4z" fill="#8E9CBB"/></symbol><symbol fill="none" viewBox="0 0 14 15" id="i_plus" xmlns="http://www.w3.org/2000/svg"><path d="M6.997 14.008a1 1 0 01-.996-1.002L6 1.01A1 1 0 016.996.008a1 1 0 01.996 1.003l.001 11.995a1 1 0 01-.996 1.002z" fill="#06F"/><path d="M14 7.017a1 1 0 00-.996-1.003H.996A1 1 0 000 7.017a1 1 0 00.996 1.002h12.008A1 1 0 0014 7.017z" fill="#06F"/></symbol><symbol fill="none" viewBox="0 0 16 17" id="i_search" xmlns="http://www.w3.org/2000/svg"><path d="M10.704 11l3.953 4.243M12.18 7c0 3.314-2.503 6-5.59 6C3.503 13 1 10.314 1 7s2.503-6 5.59-6c3.088 0 5.591 2.686 5.591 6z" stroke="#8E9CBB" stroke-width="2" stroke-linecap="round"/></symbol><symbol fill="none" viewBox="0 0 13 15" id="i_trash" xmlns="http://www.w3.org/2000/svg"><path d="M1 3a1 1 0 000 2V3zm11 2a1 1 0 100-2v2zM2.928 3.6a1 1 0 002 0h-2zM5.214 1V0v1zm2.572 0V0v1zm.285 2.6a1 1 0 102 0h-2zM6 7a1 1 0 00-2 0h2zm-2 4a1 1 0 102 0H4zm5-4a1 1 0 00-2 0h2zm-2 4a1 1 0 102 0H7zM1 5h11V3H1v2zm3.928-1.4V2.3h-2v1.3h2zm0-1.3c0-.083.033-.16.088-.216L3.594.678A2.307 2.307 0 002.928 2.3h2zm.088-.216A.279.279 0 015.214 2V0c-.61 0-1.192.245-1.62.678l1.422 1.406zM5.214 2h2.572V0H5.214v2zm2.572 0c.072 0 .143.029.198.084L9.406.678A2.279 2.279 0 007.786 0v2zm.198.084a.307.307 0 01.087.216h2c0-.606-.238-1.19-.665-1.622L7.984 2.084zm.087.216v1.3h2V2.3h-2zM4 7v4h2V7H4zm3 0v4h2V7H7zm3-3v8h2V4h-2zm-1 9H4v2h5v-2zm-6-1V4H1v8h2zm1 1a1 1 0 01-1-1H1a3 3 0 003 3v-2zm6-1a1 1 0 01-1 1v2a3 3 0 003-3h-2z" fill="#FF238D"/></symbol><symbol fill="none" viewBox="0 0 12 12" id="i_x" xmlns="http://www.w3.org/2000/svg"><path d="M.326 10.746a1 1 0 010-1.414L9.363.292a1 1 0 111.414 1.415L1.74 10.746a1 1 0 01-1.414 0z" fill="#FF238D"/><path d="M10.684 10.684a1 1 0 000-1.415L6.195 4.781 1.707.293A1 1 0 00.293 1.707l8.976 8.976a1 1 0 001.415 0z" fill="#FF238D"/></symbol></svg>